<?xml version="1.0" standalone="no"?>
<!DOCTYPE svg PUBLIC "-//W3C//DTD SVG 20010904//EN"
 "http://www.w3.org/TR/2001/REC-SVG-20010904/DTD/svg10.dtd">
<svg version="1.0" xmlns="http://www.w3.org/2000/svg"
 width="64.000000pt" height="64.000000pt" viewBox="0 0 64.000000 64.000000"
 preserveAspectRatio="xMidYMid meet">

<g transform="translate(0.000000,64.000000) scale(0.100000,-0.100000)"
fill="#e9395e" stroke="none">
<path d="M269 630 c-115 -19 -214 -106 -249 -218 -11 -35 -20 -77 -20 -92 0
-31 4 -33 141 -46 55 -5 69 -10 79 -28 16 -31 61 -56 100 -56 39 0 84 25 100
56 10 18 24 23 79 28 138 13 141 15 141 47 0 17 -5 29 -12 29 -7 0 -21 26 -30
58 -44 149 -187 245 -329 222z m89 -282 c28 -28 1 -98 -36 -98 -25 0 -52 31
-52 60 0 33 17 50 50 50 14 0 31 -5 38 -12z"/>
</g>
</svg>
